<svg xmlns="http://www.w3.org/2000/svg" width="190" height="94" viewBox="0 0 190 94"><path fill="#00609E" d="M179.972 88.063C181.6 89.68 181.048 91 178.746 91h-76.82c-2.3 0-4.184-1.87-4.184-4.153V10.614c0-2.284 1.332-2.832 2.96-1.216l79.27 78.665zm-169.944 0C8.4 89.68 8.952 91 11.254 91h76.82c2.3 0 4.184-1.87 4.184-4.153V10.614c0-2.284-1.332-2.832-2.96-1.216L10.03 88.063zM104.77 5.937C103.142 4.32 103.694 3 105.996 3h76.82c2.3 0 4.184 1.87 4.184 4.153v76.233c0 2.284-1.332 2.832-2.96 1.216L104.77 5.937zm-19.54 0C86.858 4.32 86.306 3 84.004 3H7.184C4.884 3 3 4.87 3 7.153v76.233c0 2.284 1.332 2.832 2.96 1.216L85.23 5.937z"/></svg>